<svg width="24" height="24" viewBox="0 0 24 24" xmlns="http://www.w3.org/2000/svg">
  <path fill="currentColor" d="M12 2 3 6v6c0 5 3.8 8.7 9 10 5.2-1.3 9-5 9-10V6l-9-4Zm0 2.2L19 7.3V12c0 3.9-2.8 6.8-7 7.9-4.2-1.1-7-4-7-7.9V7.3l7-3.1Z"/>
  <path fill="currentColor" d="M8.8 8.5a1.7 1.7 0 1 0 1.7 1.7c0-.2 0-.4-.1-.6l2.2-1.3c.3.3.7.4 1.1.4a1.7 1.7 0 1 0-1.7-1.7v.1L9.5 8.6c-.2-.1-.5-.1-.7-.1Zm4.9 4.8c-.4 0-.8.1-1.1.4l-2.2-1.3c.1-.2.1-.4.1-.6H8.8c0 .9.8 1.7 1.7 1.7.2 0 .5 0 .7-.1l2.5 1.5v.1a1.7 1.7 0 1 0 0-1.7Z"/>
</svg>
